Coordinates
version=1
nRows=14
nColumns=36
inDegrees=yes

Units are S.I. units (second, meters, Newtons, ...)
If the header above contains a line with 'inDegrees', this indicates whether rotational values are in degrees (yes) or radians (no).

endheader
time	pelvis_tilt	pelvis_list	pelvis_rotation	pelvis_tx	pelvis_ty	pelvis_tz	hip_flexion_r	hip_adduction_r	hip_rotation_r	knee_angle_r	knee_angle_r_beta	ankle_angle_r	subtalar_angle_r	mtp_angle_r	hip_flexion_l	hip_adduction_l	hip_rotation_l	knee_angle_l	knee_angle_l_beta	ankle_angle_l	subtalar_angle_l	mtp_angle_l	lumbar_extension	lumbar_bending	lumbar_rotation	arm_flex_r	arm_add_r	arm_rot_r	elbow_flex_r	pro_sup_r	arm_flex_l	arm_add_l	arm_rot_l	elbow_flex_l	pro_sup_l
      0.00000000	     -2.96755788	     -0.49325707	      4.52009965	      0.79393646	      0.93847396	     -0.00583182	     37.93857206	     -1.80502490	     -2.34397657	     13.40403471	      0.23394454	    -12.95122484	    -12.88304429	     -6.72242372	     24.58278726	      9.64482527	     -2.84618907	     38.65892767	      0.67472557	     10.32168412	    -14.14072644	     -6.72242372	    -24.48388599	     -5.99832609	      1.51107481	     56.00609295	      9.35489363	     68.48166574	    119.59562276	    106.77417884	     49.32642109	      4.69249592	     76.85912520	    120.11453344	    102.27832215
      0.01666670	     -5.10612961	     -1.15579984	      3.41034152	      0.79480654	      0.92500683	     -0.00001036	     41.06569706	     -0.95974376	     -2.57503717	     10.05251164	      0.17544943	     -9.42262936	     -8.12224605	     -6.78251941	     27.06737919	      8.21365738	     -1.73521194	     38.45213036	      0.67111628	     13.44007231	     -9.77054257	     -6.78251941	    -22.25672778	     -6.70568743	      2.13270446	     56.72303284	      9.27836643	     72.43506827	    119.43564606	    105.59652640	     51.28952853	      3.83108874	     80.82230413	    121.01152560	    100.11576615
      0.03333330	     -6.17672059	     -1.33627161	      2.16140822	      0.79577918	      0.91809649	      0.00171583	     42.74634825	      0.25656467	     -3.02797012	      9.75435574	      0.17024562	     -7.56581468	     -5.11500874	     -6.93500593	     28.96881350	      7.19600329	     -2.23056253	     39.68446649	      0.69262460	     14.94809237	    -10.18034918	     -6.93500593	    -21.83870344	     -7.40643291	      2.83720239	     56.54124085	      8.81165888	     74.21382893	    118.80559657	    104.88693881	     53.08858922	      3.28518293	     82.86350235	    122.51030649	     91.35945312
      0.05000000	     -6.77292669	     -1.21460422	      1.98713678	      0.78671457	      0.90941239	      0.00273764	     45.00718082	      0.10833685	     -3.01532890	     11.29190845	      0.19708098	     -7.42001921	     -4.49035499	     -7.02036438	     30.83782298	      6.98269500	     -2.89326057	     41.54964978	      0.72517819	     17.85603674	     -8.10040152	     -7.02036438	    -22.49844345	     -7.87429299	      3.10711439	     57.61538173	      8.41343181	     74.67380738	    118.36106028	    100.48302779	     54.95197721	      3.24459819	     83.85297097	    123.24194432	     87.67898597
      0.06666670	     -7.08366728	     -1.91212249	      1.77442056	      0.78649807	      0.90452837	      0.00278184	     47.41277785	      0.54376302	     -3.39196434	     14.12449699	      0.24651898	     -6.80645298	     -4.54274039	     -7.03786645	     32.76420088	      5.90996475	     -3.13461536	     44.12856641	      0.77018878	     19.80515082	     -7.52103270	     -7.03786645	    -23.55519330	     -7.08804097	      3.12065854	     57.73379726	      8.19365795	     75.77278583	    117.58969053	    100.32106637	     55.67891294	      3.05010419	     83.48984377	    122.16702215	     86.17799128
      0.08333330	     -7.76113290	     -2.09866405	      2.36700121	      0.78194314	      0.89768392	      0.00605992	     50.05151592	      0.13332129	     -3.24753330	     15.95207839	      0.27841629	     -5.95946480	     -4.98087342	     -7.04738721	     35.29301431	      5.47488771	     -3.39472276	     46.98664655	      0.82007169	     21.39349334	     -6.31646569	     -7.04738721	    -24.23249835	     -6.81487230	      2.78198744	     57.79494110	      8.02793207	     75.85397554	    116.58260099	     99.80205179	     56.50857723	      3.33624907	     83.94550009	    121.72790139	     85.07700277
      0.10000000	     -7.71513159	     -2.42715171	      2.57528269	      0.77731190	      0.89472230	      0.00811955	     52.19567023	     -0.03634025	     -3.90558919	     18.01495513	      0.31442028	     -6.22265646	     -5.74721658	     -7.13762147	     36.69680055	      4.84045720	     -3.35379027	     48.94898416	      0.85432094	     21.91212010	     -5.96244626	     -7.13762147	    -25.79584487	     -6.41006761	      2.92420123	     58.75262789	      7.88720080	     75.85105688	    116.48855382	     93.79726161	     57.77437409	      3.15934000	     84.27278822	    121.89296740	     75.48925827
      0.11666670	     -7.57162283	     -2.56556878	      3.05317251	      0.77826462	      0.89388978	      0.00817579	     53.17400732	     -0.29514182	     -4.11751782	     18.84457718	      0.32889992	     -5.57198549	     -5.93332300	     -7.14006380	     37.55101499	      4.57596296	     -3.26984455	     50.48548702	      0.88113797	     22.04132291	     -5.99332695	     -7.14006380	    -27.53273979	     -6.30860189	      2.44136472	     58.64341000	      7.86133709	     75.85862146	    116.30499045	     93.72947442	     58.53044841	      2.74422111	     84.27897502	    120.98209810	     75.39407180
      0.13333330	     -7.94375935	     -2.25107517	      3.55148939	      0.76935475	      0.88215756	      0.01315903	     55.07889522	     -1.00391085	     -4.66446398	     18.65736499	      0.32563245	     -5.43633336	     -5.61593236	     -7.17657294	     39.30582759	      4.65282385	     -3.65787495	     52.20460461	      0.91114224	     22.96939977	     -5.11068992	     -7.17657294	    -28.74897005	     -6.78863583	      1.79958816	     59.37532146	      8.18413720	     75.87848213	    116.28312849	     91.14311049	     59.94095184	      2.46392353	     84.27621370	    120.88702606	     74.09544548
      0.15000000	     -8.02490171	     -2.01107876	      3.65016253	      0.77497953	      0.87367642	      0.01064397	     56.31958682	     -1.47844158	     -4.90872786	     18.73881554	      0.32705403	     -5.46671271	     -5.80374390	     -7.18088833	     40.15403049	      4.82285903	     -3.95182157	     53.66600893	      0.93664855	     23.76702937	     -5.59530909	     -7.18088833	    -29.95982702	     -7.01863332	      1.54333173	     59.83666234	      8.44291069	     75.56156586	    116.53755614	     91.00235907	     60.63328746	      2.46803627	     84.17976722	    121.07178511	     73.97075452
      0.16666670	     -8.51469890	     -1.94139470	      3.91143404	      0.76858941	      0.86527315	      0.01369517	     58.16244052	     -1.66390216	     -4.95990353	     19.26777333	      0.33628608	     -5.35887262	     -6.02620686	     -7.19007859	     42.06427250	      4.81509160	     -4.28355101	     55.93107544	      0.97618142	     24.59174490	     -5.27043483	     -7.19007859	    -30.73864568	     -7.28311988	      1.13636596	     60.65358706	      8.75911580	     75.93592654	    117.56322336	     90.59236620	     61.22029032	      2.15271666	     84.44708879	    121.14097355	     73.45328947
      0.18333330	     -8.96716249	     -1.85833870	      4.44470066	      0.76376158	      0.85834634	      0.01730151	     60.29164345	     -1.96159177	     -4.27260112	     19.95250724	      0.34823695	     -5.21034385	     -6.92749055	     -7.19930149	     43.85792844	      5.11105188	     -4.09444613	     57.89197852	      1.01040564	     25.29538029	     -5.32912684	     -7.19930149	    -31.49427598	     -7.39331491	      0.71820780	     61.21886756	      8.76817283	     75.88641603	    117.38049331	     90.36925611	     61.83197530	      2.02049734	     84.81195955	    121.34441535	     73.27521741
      0.20000000	     -8.99973413	     -2.03715436	      4.65206595	      0.76446473	      0.85289527	      0.01085515	     61.57341532	     -2.01486590	     -3.43768413	     20.46569781	      0.35719381	     -4.85947693	     -6.77354403	     -7.20172320	     45.02938512	      5.64084919	     -3.39989613	     59.64171737	      1.04094434	     25.61360258	     -6.44845936	     -7.20172320	    -32.69135720	     -6.84563375	      0.56914317	     61.69304334	      8.67800353	     75.83453213	    117.80364452	     90.37376888	     62.16539262	      2.15335151	     84.81598780	    121.71693655	     73.27418839
      0.21666670	     -8.88526740	     -2.12600584	      5.05257285	      0.75558480	      0.84763580	      0.01069066	     62.57639066	     -2.29905183	     -3.25035568	     20.67935710	      0.36092287	     -4.90633078	     -6.61007361	     -7.20719457	     46.19949524	      6.42164924	     -2.72557743	     60.92465368	      1.06333580	     25.06147597	     -7.89514398	     -7.20719457	    -34.07297478	     -6.29840437	      0.13345874	     62.87705125	      8.67475747	     75.83244552	    118.62977471	     90.37580930	     62.90521329	      1.99760504	     84.79760449	    121.53712075	     73.27648549
